# xmcd
#
# Track frame offsets:
#	150
#	16245
#	34096
#	50893
#	67993
#	82776
#	98973
#	116748
#	131374
#	148025
#	165733
#	181420
# Disc length: 2614 seconds
# Revision: 1
# Processed by: cddbd v1.5.2PL0 Copyright (c) Steve Scherf et al.
#
# Submitted via: libkcddb 0.31
#
DISCID=9e0a340c
DTITLE=ฝน  ธนสุนทร - ฝนฝากรัก
DYEAR=2006
DGENRE=Country
TTITLE0=โอ๊ยๆ
TTITLE1=น้ำตาฝน
TTITLE2=ตลอดเวลา
TTITLE3=คิดถึง
TTITLE4=รักในซีเมเจอร์
TTITLE5=หลักไม้เลื้อย
TTITLE6=หนึ่งมิตรชิดใกล้
TTITLE7=รอยเท้าบนพื้นทราย
TTITLE8=พิษรัก
TTITLE9=หยาดเพชร
TTITLE10=อาลัยรัก
TTITLE11=ไม่อยากให้โลกนี้มีความฝัน
EXTD=
EXTT0=
EXTT1=
EXTT2=
EXTT3=
EXTT4=
EXTT5=
EXTT6=
EXTT7=
EXTT8=
EXTT9=
EXTT10=
EXTT11=
PLAYORDER=
